<?xml version="1.0" standalone="no"?>
<!DOCTYPE svg PUBLIC "-//W3C//DTD SVG 20010904//EN"
 "http://www.w3.org/TR/2001/REC-SVG-20010904/DTD/svg10.dtd">
<svg version="1.0" xmlns="http://www.w3.org/2000/svg"
 width="425.000000pt" height="319.000000pt" viewBox="0 0 425.000000 319.000000"
 preserveAspectRatio="xMidYMid meet">

<g transform="translate(0.000000,319.000000) scale(0.100000,-0.100000)"
fill="#000000" stroke="none">
<path d="M2159 2990 c-55 -9 -92 -27 -84 -40 8 -12 73 -30 111 -30 38 0 45 -9
68 -85 25 -83 46 -125 62 -125 21 0 204 71 204 79 0 4 -7 16 -15 27 -24 32
-16 41 9 10 18 -21 30 -27 46 -23 33 9 98 -21 112 -51 27 -56 95 -66 138 -20
41 44 36 129 -9 143 -12 3 -21 13 -21 21 0 19 -60 46 -163 74 -108 30 -115 21
-12 -14 47 -16 85 -33 85 -38 0 -11 -39 -1 -133 34 -118 45 -271 59 -398 38z
m603 -205 c-5 -29 -8 -29 -37 -7 -27 21 -19 33 20 29 14 -1 19 -8 17 -22z"/>
<path d="M1995 2899 c-17 -4 -41 -18 -53 -30 -22 -19 -22 -22 -7 -39 15 -17
13 -18 -29 -24 -86 -13 -138 -72 -185 -209 -14 -39 -37 -77 -74 -118 -56 -61
-121 -171 -115 -191 2 -6 -6 -21 -18 -33 -13 -13 -41 -59 -63 -104 -43 -84
-47 -112 -35 -218 l7 -53 34 30 c28 25 43 30 83 30 27 0 61 5 76 10 15 6 29 8
32 5 11 -11 -9 -17 -77 -25 -82 -9 -129 -33 -110 -56 9 -11 7 -14 -13 -14 -25
0 -66 -37 -87 -77 -23 -45 -8 -112 23 -100 11 5 16 1 16 -13 0 -21 20 -28 20
-7 1 36 32 -37 51 -122 11 -53 36 -131 55 -173 20 -46 33 -92 32 -115 -2 -131
1 -165 16 -182 9 -10 16 -33 16 -52 l1 -34 17 35 c9 19 26 36 37 38 54 10 71
68 34 116 -22 28 -44 34 -52 14 -3 -8 -6 -6 -6 5 -1 11 6 17 22 17 27 0 51
-23 66 -62 6 -17 22 -30 45 -38 30 -10 38 -19 56 -68 32 -85 31 -129 -2 -155
l-28 -21 -25 24 c-15 14 -34 52 -46 92 -23 73 -39 88 -39 35 0 -37 -19 -147
-28 -161 -3 -6 -10 7 -16 29 -6 21 -23 47 -38 58 -58 43 -137 -9 -225 -151
-38 -61 -58 -81 -122 -123 -41 -28 -77 -45 -79 -40 -2 6 -10 11 -17 11 -12 0
-12 5 -1 33 8 17 16 49 20 70 6 30 4 37 -9 37 -24 0 -30 -4 -28 -20 1 -11 -2
-11 -12 3 -12 16 -19 17 -78 7 -36 -7 -74 -10 -84 -8 -10 3 17 10 59 18 60 10
79 17 83 31 9 28 0 37 -59 50 -49 11 -58 10 -87 -7 -19 -12 -43 -41 -60 -74
-37 -71 -45 -114 -28 -148 22 -45 23 -47 6 -33 -25 20 -33 -11 -18 -63 7 -23
16 -59 21 -81 5 -22 12 -49 15 -60 7 -20 6 -20 -9 -1 -9 11 -16 34 -16 50 -1
42 -38 122 -50 110 -14 -14 -40 -155 -40 -214 0 -60 14 -73 90 -78 55 -4 61
-2 90 26 39 39 40 71 3 73 -21 1 -18 3 12 8 26 4 41 12 43 23 2 13 -7 18 -43
23 -29 5 -51 15 -60 28 -22 31 -18 46 4 18 14 -18 31 -25 70 -29 l51 -5 0 36
c0 51 12 76 60 125 45 46 56 48 46 8 -5 -19 -12 -25 -29 -23 -33 3 -70 -73
-62 -128 9 -62 55 -174 75 -185 51 -28 119 4 194 91 73 84 94 159 54 196 -48
44 -100 36 -132 -18 -14 -24 -16 -36 -7 -61 16 -44 7 -45 -24 -4 -15 20 -36
36 -46 36 -13 0 -19 7 -19 23 0 37 36 83 97 125 71 49 97 77 158 170 68 104
127 144 178 121 28 -13 47 -54 47 -101 0 -16 4 -27 8 -24 5 3 35 -60 67 -140
32 -79 64 -152 71 -162 12 -15 13 -13 14 21 0 36 2 39 54 62 29 13 69 27 89
30 33 7 37 4 63 -34 15 -23 28 -40 30 -38 7 7 -65 336 -81 367 -9 19 -34 55
-54 80 -67 83 -66 81 -47 74 16 -6 16 3 0 84 -2 12 0 22 6 22 5 0 10 -4 10
-10 0 -20 44 -9 94 23 49 31 54 32 151 31 67 -1 127 -8 182 -23 88 -23 163
-27 194 -11 29 16 24 69 -14 142 -39 75 -84 106 -249 170 -131 51 -140 64
-109 154 l21 59 -45 -50 c-25 -27 -59 -69 -77 -92 -17 -24 -35 -43 -39 -43
-25 0 -9 26 62 98 78 80 80 82 64 105 -14 22 -14 31 0 102 9 42 14 80 10 83
-9 9 -135 -27 -173 -49 -19 -11 -38 -17 -43 -14 -16 11 -10 35 9 35 10 0 56
11 103 25 47 14 95 23 108 20 23 -6 23 -5 17 57 -12 133 -16 234 -6 198 4 -19
12 -77 15 -128 l7 -94 27 7 c14 4 28 9 30 11 8 8 -18 167 -39 234 -19 60 -19
70 -6 130 8 36 18 100 21 143 14 149 -34 205 -181 215 -92 6 -134 -13 -163
-71 -23 -48 -28 -34 -7 18 21 50 56 68 134 69 85 1 154 -19 194 -55 16 -16 32
-29 34 -29 12 0 1 66 -13 82 -13 15 -15 23 -6 37 10 16 5 21 -43 40 -64 27
-71 36 -50 60 38 41 3 61 -69 40z m-50 -349 c6 -65 11 -82 27 -91 37 -20 61
-7 75 41 16 53 10 61 -52 68 -31 3 -42 8 -33 13 8 4 32 4 54 -1 53 -13 54 -13
54 10 0 25 2 25 46 -2 35 -23 35 -24 29 -78 -15 -142 -15 -141 -53 -157 -29
-12 -46 -12 -106 -2 -39 6 -88 18 -110 25 -47 17 -46 17 -46 -1 0 -25 42 -39
116 -40 44 0 78 -6 88 -14 10 -9 28 -11 51 -7 19 4 35 4 35 0 0 -13 -69 -120
-89 -138 -17 -16 -30 -18 -78 -12 -31 4 -69 9 -83 13 -23 5 -24 4 -9 -11 11
-12 36 -17 92 -19 42 -1 77 -4 77 -7 -1 -23 -21 -28 -98 -23 -96 7 -95 5 -106
116 -4 38 -14 86 -22 107 -14 35 -14 40 5 76 14 25 21 57 21 91 0 87 23 121
86 122 20 1 23 -6 29 -79z m-135 -20 c0 -11 -5 -19 -12 -17 -19 4 -30 -81 -23
-185 6 -94 28 -205 44 -221 4 -4 27 -11 52 -16 l44 -9 -38 -1 c-77 -2 -100 32
-117 176 -9 82 -1 221 15 274 8 25 35 24 35 -1z m-40 -627 c-2 -29 -40 -81
-71 -95 -49 -25 -151 -35 -166 -17 -9 12 -2 13 45 11 86 -5 133 15 157 66 17
37 36 56 35 35z m65 -255 c-15 -61 -15 -74 -1 -155 20 -113 20 -113 -9 -113
-18 0 -23 -4 -19 -15 4 -8 15 -15 25 -15 15 0 19 -7 19 -40 0 -56 -28 -83 -70
-69 -50 18 -71 54 -64 109 8 61 -13 103 -66 130 -54 27 -57 38 -13 45 108 16
144 27 157 48 23 35 46 126 48 186 l2 56 3 -50 c3 -27 -3 -80 -12 -117z
m-1016 -1135 c0 -5 -4 -17 -9 -28 -8 -18 -9 -17 -9 8 -1 15 4 27 9 27 6 0 10
-3 9 -7z"/>
<path d="M2164 1928 c13 -59 -42 -183 -65 -146 -6 9 -9 5 -9 -14 0 -58 52 -17
78 61 15 42 15 91 1 111 -8 12 -9 9 -5 -12z"/>
<path d="M2300 1665 c0 -10 -11 -15 -32 -15 -25 0 -29 -3 -20 -12 7 -7 12 -26
12 -43 0 -38 31 -69 113 -115 32 -18 71 -46 88 -63 46 -46 130 -174 124 -190
-10 -24 13 -67 36 -67 12 0 19 -5 16 -12 -4 -13 19 -68 28 -68 3 0 14 6 25 12
14 9 25 10 34 3 8 -6 52 -38 97 -73 l84 -64 5 135 c3 75 8 139 13 143 4 4 7
-57 7 -136 l0 -142 23 14 c18 13 23 26 25 79 6 118 -33 349 -59 349 -12 0 -49
-80 -74 -162 -18 -55 -18 -59 0 -111 11 -33 15 -64 11 -80 l-6 -27 -41 27
c-22 14 -38 29 -37 33 2 3 23 66 48 138 l45 132 -20 37 c-25 47 -100 94 -159
100 -38 5 -48 2 -70 -20 -14 -14 -26 -35 -26 -47 0 -20 1 -20 37 4 46 32 58
24 15 -10 -37 -29 -39 -40 -12 -74 11 -14 18 -18 14 -8 -4 11 6 24 32 42 47
32 57 26 15 -10 -25 -21 -29 -29 -20 -40 7 -8 20 -12 30 -9 12 4 19 1 19 -7 0
-7 19 -22 43 -32 36 -17 39 -20 20 -23 -13 -3 -23 -10 -23 -18 0 -26 -49 -32
-109 -14 -30 9 -46 25 -85 85 -63 97 -108 142 -181 183 -73 40 -115 78 -115
103 0 11 14 32 31 47 25 23 28 29 15 34 -10 4 -16 1 -16 -8z"/>
<path d="M2352 1633 c-22 -9 -34 -41 -22 -62 7 -15 189 -121 206 -121 2 0 4 6
4 13 0 7 13 26 30 42 16 15 27 32 24 37 -9 14 -116 65 -173 82 -30 9 -55 16
-55 15 -1 0 -7 -3 -14 -6z"/>
<path d="M1448 1470 c-28 -43 -78 -177 -78 -210 0 -17 -7 -44 -15 -60 -9 -17
-20 -41 -25 -56 -14 -35 6 -21 28 21 9 18 35 52 56 75 37 41 40 42 53 24 32
-44 28 -60 -41 -143 -36 -44 -90 -101 -119 -128 -68 -62 -116 -165 -117 -250
0 -22 1 -22 42 -7 23 8 53 24 65 36 57 54 253 428 253 483 0 16 -14 59 -31 95
-17 36 -37 83 -43 105 l-12 40 -16 -25z"/>
<path d="M2662 1286 c6 -14 15 -26 20 -26 10 0 -7 36 -22 45 -6 4 -5 -5 2 -19z"/>
<path d="M2688 1073 c-33 -39 -39 -63 -32 -133 6 -60 9 -70 26 -70 41 0 167
-63 251 -126 80 -60 117 -74 117 -45 0 6 -14 45 -30 87 -17 41 -33 102 -37
134 l-6 59 -27 -21 c-34 -25 -43 -21 -155 69 -43 34 -82 63 -86 63 -3 0 -13
-8 -21 -17z"/>
<path d="M1483 843 c-16 -16 -45 -48 -63 -73 -19 -25 -47 -60 -64 -78 l-31
-33 49 -44 c56 -52 62 -51 125 21 49 56 81 120 81 163 0 73 -42 92 -97 44z"/>
<path d="M2665 839 c13 -41 36 -81 110 -190 90 -132 109 -180 103 -254 -4 -44
-2 -55 10 -55 13 0 13 -3 -1 -18 -17 -19 -23 -63 -10 -75 3 -4 12 -2 20 5 11
9 13 8 11 -2 -3 -15 63 -36 86 -27 8 3 16 29 21 64 12 98 38 128 138 158 21 6
39 14 40 18 3 10 -77 117 -88 117 -6 0 -29 -18 -50 -40 -21 -22 -44 -40 -49
-40 -6 0 13 24 42 53 l53 54 -18 34 c-10 19 -19 36 -21 39 -2 2 -11 -1 -20 -7
-14 -8 -34 2 -107 55 -93 67 -186 115 -243 127 -32 7 -34 6 -27 -16z"/>
<path d="M1860 590 c-30 -11 -56 -20 -57 -20 -11 0 -1 -215 12 -257 16 -55 82
-133 112 -133 10 0 47 14 82 30 36 17 58 24 52 16 -15 -18 -112 -56 -143 -56
-11 0 -35 16 -53 35 -32 33 -33 33 -39 12 -16 -62 -2 -94 40 -89 12 2 24 -4
27 -13 5 -11 19 -15 49 -15 24 1 64 -2 90 -6 44 -6 49 -4 83 31 l37 37 -6 76
c-11 121 -45 183 -47 85 -1 -46 -2 -44 -13 23 -10 61 -21 86 -75 168 -38 57
-70 96 -80 96 -9 -1 -41 -10 -71 -20z"/>
<path d="M3125 417 c-69 -25 -92 -58 -97 -142 -3 -48 -2 -50 25 -53 24 -3 27
0 27 26 0 61 61 108 158 120 l57 8 -49 32 c-28 18 -52 32 -55 31 -4 0 -33 -10
-66 -22z"/>
<path d="M3155 327 c-29 -17 -43 -33 -53 -61 -7 -22 -9 -43 -4 -48 13 -13 170
-22 235 -14 31 4 65 15 76 24 19 16 19 19 5 54 -20 46 -70 68 -157 68 -46 0
-72 -6 -102 -23z m29 -53 c18 -18 6 -54 -19 -54 -21 0 -35 31 -24 52 12 22 23
23 43 2z"/>
</g>
</svg>
